<?xml version="1.0" encoding="utf-8"?>
<!--
  Symmetry-clean production trace for one competition kama blade.

  The 190 x 120 envelope comes from the published 36 x 19 x 4 cm prop size.
  Its silhouette follows the Century Fire & Ice competition kama reference:
  a broad rounded heel, a continuous crescent spine, a swept cutting edge, two
  elongated weight-reduction windows, and the central yin-yang window. The trace is authored without camera skew so
  both hands receive the same manufactured geometry.
-->
<svg xmlns="http://www.w3.org/2000/svg" viewBox="0 0 190 110">
  <path fill="#d9dde3" fill-rule="evenodd" d="
    M 2 6
    C 56 3, 124 23, 188 94
    Q 190 97, 186 101
    C 132 76, 76 59, 16 55
    L 16 69
    L 2 69 Z

    M 20 16
    C 44 17, 64 21, 82 28
    L 73 45
    C 57 39, 40 35, 24 34 Z

    M 116 41
    C 136 51, 153 63, 169 78
    L 156 88
    C 142 75, 127 65, 110 57 Z

    M 113 51
    A 18 18 0 1 1 77 51
    A 18 18 0 1 1 113 51 Z
  "/>
</svg>
