<?xml version="1.0" encoding="UTF-8"?>
<svg xmlns="http://www.w3.org/2000/svg" viewBox="0 0 805.700 739.005">
  <path d="M 302.829 20.482 C 306.328 19.410 315.730 16.847 319.645 15.954 C 323.560 15.062 332.737 13.510 337.373 12.609 C 342.009 11.707 360.550 8.000 360.550 8.000 C 360.550 8.000 369.879 9.285 373.369 9.482 C 376.858 9.679 387.282 9.523 391.341 9.740 C 395.400 9.957 405.162 10.866 409.182 11.396 C 413.202 11.926 422.851 13.588 426.811 14.416 C 430.771 15.244 440.249 17.585 444.123 18.703 C 447.998 19.822 457.233 22.860 460.994 24.285 C 464.755 25.711 473.689 29.528 477.311 31.281 C 480.933 33.034 489.507 37.667 492.951 39.751 C 496.395 41.836 504.487 47.267 507.703 49.678 C 510.920 52.088 518.383 58.300 521.331 61.022 C 524.278 63.744 531.048 70.697 533.709 73.693 C 536.370 76.690 542.445 84.252 544.810 87.464 C 547.174 90.675 552.515 98.660 554.572 102.031 C 556.629 105.402 561.204 113.697 562.961 117.208 C 564.718 120.720 568.591 129.349 570.072 133.013 C 571.553 136.678 574.809 145.716 576.026 149.541 C 577.243 153.367 579.870 162.805 580.812 166.767 C 581.754 170.730 583.688 180.453 584.338 184.508 C 584.988 188.562 586.198 198.439 586.547 202.540 C 586.896 206.641 587.376 216.579 587.415 220.691 C 587.453 224.802 587.172 234.726 586.886 238.818 C 586.600 242.910 585.509 252.750 584.890 256.798 C 584.271 260.847 582.368 270.552 581.424 274.539 C 580.480 278.526 577.812 288.066 576.561 291.976 C 575.310 295.885 571.928 305.223 570.388 309.036 C 568.849 312.849 564.791 321.931 562.979 325.622 C 561.168 329.313 556.470 338.068 554.407 341.606 C 552.344 345.145 547.062 353.485 544.777 356.844 C 542.493 360.203 536.720 368.073 534.250 371.243 C 531.780 374.412 525.618 381.824 522.984 384.812 C 520.350 387.799 513.820 394.798 511.009 397.603 C 508.198 400.408 501.204 406.968 498.182 409.563 C 495.159 412.158 487.577 418.137 484.337 420.499 C 481.097 422.862 472.959 428.197 469.595 430.408 C 466.231 432.618 457.925 437.711 454.651 440.004 C 451.376 442.296 443.610 447.986 440.705 450.634 C 437.801 453.283 431.316 460.231 429.022 463.373 C 426.727 466.515 422.024 474.771 420.463 478.359 C 418.901 481.947 416.095 491.142 415.246 495.029 C 414.397 498.915 413.217 508.620 412.970 512.652 C 412.723 516.683 412.798 526.550 413.064 530.601 C 413.330 534.651 414.549 544.421 415.316 548.394 C 416.084 552.367 418.557 561.838 419.836 565.658 C 421.115 569.478 424.846 578.486 426.601 582.096 C 428.355 585.707 433.157 594.145 435.318 597.518 C 437.478 600.891 443.154 608.734 445.663 611.861 C 448.172 614.987 454.632 622.235 457.459 625.105 C 460.286 627.975 467.493 634.588 470.611 637.185 C 473.730 639.783 481.606 645.712 484.974 648.026 C 488.342 650.341 496.761 655.577 500.329 657.606 C 503.896 659.634 512.730 664.186 516.455 665.925 C 520.179 667.665 529.342 671.515 533.192 672.954 C 537.043 674.392 546.477 677.500 550.429 678.616 C 554.381 679.731 564.034 682.028 568.064 682.796 C 572.094 683.564 581.909 684.987 585.990 685.391 C 590.070 685.795 599.974 686.329 604.065 686.360 C 608.156 686.392 618.036 686.025 622.083 685.670 C 626.130 685.315 635.828 683.989 639.774 683.228 C 643.720 682.467 653.096 680.129 656.900 678.957 C 660.705 677.784 669.701 674.451 673.347 672.880 C 676.992 671.309 685.595 667.038 689.063 665.098 C 692.531 663.158 700.685 658.031 703.946 655.760 C 707.207 653.489 714.814 647.622 717.838 645.063 C 720.861 642.504 727.850 635.996 730.622 633.184 C 733.393 630.372 739.760 623.285 742.293 620.248 C 744.825 617.211 750.647 609.615 752.967 606.389 C 755.288 603.162 760.655 595.130 762.767 591.778 C 764.878 588.426 769.746 580.104 771.598 576.810 C 773.450 573.516 777.594 565.579 779.110 562.715 C 780.626 559.851 783.823 553.645 784.973 551.536 C 786.123 549.427 788.409 545.589 789.258 544.108 C 790.108 542.626 791.811 539.775 792.472 538.464 C 793.132 537.153 794.573 533.711 795.089 532.540 C 795.605 531.370 796.727 528.477 797.023 528.136 C 797.319 527.796 797.742 528.359 797.700 529.534 C 797.658 530.710 797.087 535.858 796.650 538.508 C 796.213 541.158 794.656 549.399 793.846 552.915 C 793.035 556.431 790.639 565.736 789.498 569.534 C 788.357 573.332 785.217 582.637 783.778 586.425 C 782.339 590.212 777.846 599.944 776.800 602.956 C 775.754 605.968 774.550 613.000 774.550 613.000 C 774.550 613.000 762.457 630.468 759.620 634.616 C 756.782 638.764 751.931 646.293 749.514 649.598 C 747.097 652.903 740.966 660.678 738.292 663.780 C 735.617 666.882 728.844 674.107 725.914 676.965 C 722.984 679.823 715.609 686.414 712.439 688.997 C 709.269 691.579 701.337 697.470 697.946 699.750 C 694.555 702.030 686.109 707.167 682.517 709.114 C 678.925 711.061 670.021 715.355 666.254 716.931 C 662.486 718.507 653.187 721.842 649.274 723.019 C 645.361 724.196 635.746 726.533 631.726 727.317 C 627.706 728.100 617.884 729.514 613.800 729.932 C 609.716 730.350 599.798 730.933 595.690 731.005 C 591.583 731.077 581.655 730.842 577.558 730.569 C 573.461 730.295 563.596 729.213 559.536 728.593 C 555.477 727.972 545.738 726.045 541.743 725.090 C 537.747 724.135 528.189 721.424 524.279 720.163 C 520.368 718.902 511.041 715.500 507.235 713.966 C 503.430 712.432 494.380 708.418 490.701 706.630 C 487.022 704.841 478.301 700.233 474.772 698.186 C 471.242 696.139 462.912 690.887 459.561 688.570 C 456.210 686.252 448.349 680.320 445.207 677.737 C 442.066 675.153 434.753 668.596 431.844 665.777 C 428.935 662.958 422.209 655.889 419.540 652.864 C 416.871 649.840 410.724 642.312 408.292 639.093 C 405.861 635.875 400.277 627.871 398.085 624.466 C 395.893 621.062 390.893 612.616 388.947 609.056 C 387.002 605.496 382.617 596.728 380.916 593.052 C 379.214 589.376 375.413 580.385 373.933 576.621 C 372.453 572.856 369.137 563.677 367.860 559.837 C 366.584 555.997 363.718 546.644 362.672 542.738 C 361.626 538.833 359.375 529.334 358.631 525.375 C 357.888 521.415 356.525 511.799 356.109 507.802 C 355.694 503.804 355.204 494.108 354.968 490.103 C 354.732 486.098 354.432 476.411 354.029 472.463 C 353.626 468.516 352.365 459.049 351.413 455.271 C 350.460 451.493 347.337 442.600 345.624 439.126 C 343.910 435.653 338.744 427.691 336.294 424.624 C 333.844 421.558 327.027 414.694 324.008 412.070 C 320.989 409.445 313.062 403.652 309.653 401.467 C 306.245 399.282 297.604 394.525 293.932 392.793 C 290.260 391.061 281.109 387.424 277.253 386.184 C 273.398 384.944 263.880 382.562 259.913 381.851 C 255.947 381.141 246.253 380.095 242.254 379.918 C 238.254 379.740 228.594 379.978 224.625 380.286 C 220.655 380.593 211.141 381.916 207.229 382.633 C 203.317 383.351 193.953 385.545 190.106 386.618 C 186.259 387.692 177.048 390.689 173.286 392.105 C 169.524 393.520 160.549 397.357 156.913 399.108 C 153.277 400.859 144.671 405.500 141.206 407.555 C 137.741 409.610 129.610 414.920 126.341 417.239 C 123.073 419.558 115.436 425.449 112.366 428.017 C 109.296 430.586 102.122 437.078 99.252 439.904 C 96.383 442.730 89.692 449.868 87.043 452.949 C 84.394 456.030 78.273 463.781 75.883 467.092 C 73.492 470.404 68.037 478.663 65.949 482.168 C 63.860 485.674 59.186 494.348 57.455 498.021 C 55.724 501.693 51.991 510.746 50.675 514.571 C 49.359 518.395 46.708 527.809 45.841 531.765 C 44.974 535.721 43.443 545.427 43.025 549.475 C 42.607 553.522 42.141 563.392 42.150 567.479 C 42.158 571.566 42.688 581.459 43.100 585.533 C 43.512 589.608 44.992 599.409 45.785 603.431 C 46.578 607.452 48.955 617.077 50.100 621.014 C 51.245 624.950 54.429 634.336 55.884 638.165 C 57.340 641.994 61.222 651.102 62.943 654.799 C 64.663 658.496 69.158 667.287 71.066 670.785 C 72.974 674.282 77.871 682.533 79.776 685.662 C 81.681 688.791 86.275 695.865 87.877 698.397 C 89.480 700.929 92.782 706.137 93.918 708.005 C 95.053 709.873 97.032 713.445 97.898 714.878 C 98.763 716.311 100.698 719.408 101.553 720.651 C 102.409 721.893 104.835 724.949 105.445 725.838 C 106.054 726.727 107.221 728.444 106.934 728.495 C 106.648 728.547 104.443 727.366 102.916 726.293 C 101.389 725.219 95.908 721.067 93.460 719.023 C 91.012 716.979 84.085 710.922 81.316 708.259 C 78.547 705.596 71.707 698.552 69.027 695.530 C 66.346 692.508 60.440 684.941 57.666 681.595 C 54.892 678.248 44.550 666.000 44.550 666.000 C 44.550 666.000 39.760 654.744 38.079 651.247 C 36.399 647.750 31.495 638.853 29.722 635.143 C 27.950 631.433 23.941 622.340 22.438 618.515 C 20.935 614.689 17.642 605.322 16.461 601.391 C 15.279 597.460 12.835 587.849 12.012 583.831 C 11.190 579.813 9.655 570.015 9.200 565.940 C 8.745 561.866 8.093 551.966 8.000 547.878 C 7.907 543.790 8.104 533.916 8.377 529.869 C 8.649 525.822 9.747 516.128 10.403 512.170 C 11.059 508.213 13.119 498.797 14.166 494.951 C 15.212 491.105 18.214 481.967 19.634 478.238 C 21.053 474.509 24.930 465.644 26.692 462.048 C 28.453 458.452 33.119 449.937 35.177 446.511 C 37.235 443.085 42.549 435.039 44.850 431.819 C 47.151 428.599 52.969 421.102 55.481 418.100 C 57.992 415.098 64.281 408.135 67.008 405.334 C 69.735 402.533 76.577 396.011 79.542 393.385 C 82.507 390.760 89.966 384.620 93.171 382.170 C 96.376 379.720 104.405 374.012 107.820 371.767 C 111.236 369.522 119.720 364.354 123.306 362.358 C 126.891 360.362 135.736 355.853 139.459 354.155 C 143.182 352.458 152.325 348.740 156.156 347.382 C 159.987 346.024 169.356 343.184 173.261 342.175 C 177.167 341.166 186.667 339.167 190.617 338.476 C 194.567 337.785 204.133 336.497 208.111 336.078 C 212.090 335.659 221.713 334.957 225.721 334.780 C 229.728 334.602 239.434 334.447 243.471 334.515 C 247.509 334.583 257.293 335.040 261.345 335.379 C 265.398 335.719 275.193 336.883 279.232 337.508 C 283.271 338.133 292.988 339.997 296.982 340.893 C 300.975 341.790 310.553 344.261 314.469 345.420 C 318.386 346.579 327.739 349.678 331.542 351.120 C 335.346 352.563 344.352 356.438 348.031 358.145 C 351.709 359.853 360.387 364.389 363.998 366.189 C 367.609 367.989 376.243 372.475 379.891 374.028 C 383.539 375.581 392.444 378.946 396.186 379.891 C 399.927 380.837 409.111 382.241 412.903 382.369 C 416.694 382.496 425.893 381.703 429.638 381.015 C 433.384 380.327 442.337 377.652 445.953 376.297 C 449.569 374.941 458.121 370.913 461.546 369.055 C 464.971 367.198 472.993 362.179 476.173 359.908 C 479.353 357.638 486.719 351.689 489.605 349.020 C 492.491 346.351 499.091 339.414 501.638 336.358 C 504.185 333.301 509.907 325.440 512.077 322.051 C 514.248 318.662 519.012 310.090 520.792 306.455 C 522.571 302.820 526.384 293.780 527.778 289.980 C 529.173 286.179 532.079 276.835 533.095 272.918 C 534.112 269.001 536.108 259.422 536.748 255.416 C 537.388 251.410 538.467 241.636 538.746 237.574 C 539.024 233.512 539.260 223.642 539.205 219.573 C 539.151 215.503 538.636 205.692 538.267 201.667 C 537.899 197.642 536.642 188.010 535.953 184.059 C 535.265 180.108 533.216 170.679 532.194 166.806 C 531.172 162.933 528.297 153.678 526.933 149.885 C 525.569 146.092 521.864 137.028 520.160 133.337 C 518.456 129.647 513.937 120.864 511.899 117.323 C 509.860 113.781 504.546 105.421 502.176 102.088 C 499.806 98.754 493.690 90.974 490.989 87.913 C 488.287 84.852 481.362 77.811 478.342 75.080 C 475.323 72.349 467.644 66.179 464.346 63.819 C 461.048 61.459 452.759 56.233 449.243 54.257 C 445.727 52.280 436.999 47.989 433.323 46.382 C 429.647 44.774 420.603 41.341 416.806 40.070 C 413.009 38.800 403.713 36.132 399.819 35.169 C 395.924 34.206 386.416 32.244 382.439 31.572 C 378.463 30.900 368.768 29.625 364.733 29.239 C 360.697 28.854 350.850 28.277 346.836 28.168 C 342.822 28.060 333.066 28.176 329.312 28.284 C 325.559 28.392 316.793 28.956 313.720 29.124 C 310.647 29.292 304.300 29.701 302.198 29.765 C 300.096 29.829 296.552 29.713 295.173 29.690 C 293.794 29.666 291.267 29.508 290.033 29.556 C 288.799 29.604 285.463 30.001 284.283 30.115 C 283.103 30.229 280.054 30.670 279.617 30.564 C 279.181 30.457 279.392 29.757 280.429 29.174 C 281.466 28.590 286.229 26.398 288.767 25.413 C 291.306 24.428 299.329 21.554 302.829 20.482 Z M 406.120 428.667 C 406.120 428.310 406.063 427.445 406.016 427.091 C 405.970 426.737 405.801 425.888 405.708 425.543 C 405.616 425.198 405.338 424.378 405.201 424.048 C 405.064 423.718 404.681 422.941 404.503 422.632 C 404.324 422.322 403.843 421.602 403.625 421.319 C 403.408 421.036 402.837 420.384 402.584 420.132 C 402.332 419.879 401.681 419.308 401.397 419.091 C 401.114 418.874 400.394 418.392 400.085 418.214 C 399.775 418.035 398.999 417.652 398.669 417.516 C 398.339 417.379 397.519 417.100 397.174 417.008 C 396.829 416.916 395.979 416.747 395.625 416.700 C 395.271 416.653 394.407 416.597 394.050 416.597 C 393.693 416.597 392.828 416.653 392.474 416.700 C 392.120 416.747 391.271 416.916 390.926 417.008 C 390.581 417.100 389.761 417.379 389.431 417.516 C 389.101 417.652 388.324 418.035 388.015 418.214 C 387.706 418.392 386.985 418.874 386.702 419.091 C 386.419 419.308 385.768 419.879 385.515 420.132 C 385.263 420.384 384.691 421.036 384.474 421.319 C 384.257 421.602 383.775 422.322 383.597 422.632 C 383.418 422.941 383.035 423.718 382.899 424.048 C 382.762 424.378 382.484 425.198 382.391 425.543 C 382.299 425.888 382.130 426.737 382.083 427.091 C 382.036 427.445 381.980 428.310 381.980 428.667 C 381.980 429.024 382.036 429.888 382.083 430.242 C 382.130 430.596 382.299 431.446 382.391 431.791 C 382.484 432.136 382.762 432.956 382.899 433.286 C 383.035 433.616 383.418 434.392 383.597 434.702 C 383.775 435.011 384.257 435.731 384.474 436.014 C 384.691 436.298 385.263 436.949 385.515 437.201 C 385.768 437.454 386.419 438.025 386.702 438.242 C 386.985 438.460 387.706 438.941 388.015 439.120 C 388.324 439.298 389.101 439.681 389.431 439.818 C 389.761 439.954 390.581 440.233 390.926 440.325 C 391.271 440.418 392.120 440.587 392.474 440.633 C 392.828 440.680 393.693 440.737 394.050 440.737 C 394.407 440.737 395.271 440.680 395.625 440.633 C 395.979 440.587 396.829 440.418 397.174 440.325 C 397.519 440.233 398.339 439.954 398.669 439.818 C 398.999 439.681 399.775 439.298 400.085 439.120 C 400.394 438.941 401.114 438.460 401.397 438.242 C 401.681 438.025 402.332 437.454 402.584 437.201 C 402.837 436.949 403.408 436.298 403.625 436.014 C 403.843 435.731 404.324 435.011 404.503 434.702 C 404.681 434.392 405.064 433.616 405.201 433.286 C 405.338 432.956 405.616 432.136 405.708 431.791 C 405.801 431.446 405.970 430.596 406.016 430.242 C 406.063 429.888 406.120 429.024 406.120 428.667 Z" fill="#2e3191" fill-rule="evenodd"/>
</svg>